<svg data-v-ed8fa299="" data-v-e8bb27d2="" viewBox="0 0 24 24" fill="none" xmlns="http://www.w3.org/2000/svg" class="simple" style="height: 16px; width: 16px; fill: rgb(202, 202, 210); --97641414: inherit;"><path opacity="0.39" d="M15.9 21.1999C15.4 21.3999 14.8 21.1999 14.6 20.6999C14.4 20.1999 14.6 19.6 15.1 19.4C15.3 19.3 15.4 19.2999 15.5 19.1999C17.1 18.3999 18.3 17.2 19.1 15.6C19.2 15.5 19.2 15.2999 19.3 15.1999C19.5 14.6999 20.1 14.4999 20.6 14.6999C21.1 14.8999 21.3 15.5 21.1 16C21 16.2 20.9 16.4 20.8 16.6C19.8 18.6 18.2 20.1 16.3 21.1C16.3 21.1 16.1 21.0999 15.9 21.1999Z" fill="#6C78F4"></path><path d="M13 11H16C16.6 11 17 11.4 17 12C17 12.6 16.6 13 16 13H13V16C13 16.6 12.6 17 12 17C11.4 17 11 16.6 11 16V13H8C7.4 13 7 12.6 7 12C7 11.4 7.4 11 8 11H11V8C11 7.4 11.4 7 12 7C12.6 7 13 7.4 13 8V11ZM22 12C22 12.6 21.6 13 21 13C20.4 13 20 12.6 20 12C20 7.6 16.4 4 12 4C7.6 4 4 7.6 4 12C4 16.4 7.6 20 12 20C12.6 20 13 20.4 13 21C13 21.6 12.6 22 12 22C6.5 22 2 17.5 2 12C2 6.5 6.5 2 12 2C17.5 2 22 6.5 22 12Z" fill="#6C78F4"></path></svg>