<svg width="93" height="24" viewBox="0 0 93 24" fill="none" xmlns="http://www.w3.org/2000/svg">
<g clip-path="url(#clip0_3526_1295)">
<path d="M6.40262 19.8966C5.7214 19.8966 5.10505 19.4733 4.87797 18.822L0.109375 6.34981C-0.215019 5.50313 0.206693 4.55876 1.05012 4.23312C1.89354 3.90747 2.83429 4.33081 3.15868 5.17749L6.37018 13.6117L9.58169 5.17749C9.80876 4.5262 10.4251 4.10286 11.1063 4.10286C11.7876 4.10286 12.4039 4.5262 12.631 5.17749L15.8425 13.6117L19.054 5.17749C19.3784 4.33081 20.3191 3.90747 21.1626 4.23312C22.006 4.55876 22.4277 5.50313 22.1033 6.34981L17.3996 18.822C17.1725 19.4733 16.5562 19.8966 15.8749 19.8966C15.1937 19.8966 14.5774 19.4733 14.3503 18.822L11.1388 10.3878L7.92728 18.822C7.66776 19.4733 7.08385 19.8966 6.40262 19.8966Z" fill="#2E3038"/>
<path d="M55.9376 7.39189H46.4653C45.557 7.39189 44.8109 6.6429 44.8109 5.7311C44.8109 4.81929 45.557 4.07031 46.4653 4.07031H55.9376C56.8459 4.07031 57.592 4.81929 57.592 5.7311C57.592 6.6429 56.8459 7.39189 55.9376 7.39189Z" fill="#2E3038"/>
<path d="M53.6669 13.6442H46.4978C45.5895 13.6442 44.8433 12.8953 44.8433 11.9835C44.8433 11.0716 45.5895 10.3227 46.4978 10.3227H53.6669C54.5752 10.3227 55.3213 11.0716 55.3213 11.9835C55.3213 12.8953 54.5752 13.6442 53.6669 13.6442Z" fill="#2E3038"/>
<path d="M55.9701 19.8966H46.4978C45.5895 19.8966 44.8433 19.1476 44.8433 18.2358C44.8433 17.324 45.5895 16.5751 46.4978 16.5751H55.9701C56.8784 16.5751 57.6245 17.324 57.6245 18.2358C57.6245 19.1476 56.8784 19.8966 55.9701 19.8966Z" fill="#2E3038"/>
<path d="M71.9952 7.39189H62.5229C61.6145 7.39189 60.8684 6.6429 60.8684 5.7311C60.8684 4.81929 61.6145 4.07031 62.5229 4.07031H71.9952C72.9035 4.07031 73.6496 4.81929 73.6496 5.7311C73.6496 6.6429 72.9035 7.39189 71.9952 7.39189Z" fill="#2E3038"/>
<path d="M69.692 13.6442H62.5229C61.6145 13.6442 60.8684 12.8953 60.8684 11.9835C60.8684 11.0716 61.6145 10.3227 62.5229 10.3227H69.692C70.6003 10.3227 71.3464 11.0716 71.3464 11.9835C71.3464 12.8953 70.6003 13.6442 69.692 13.6442Z" fill="#2E3038"/>
<path d="M71.9952 19.8966H62.5229C61.6145 19.8966 60.8684 19.1476 60.8684 18.2358C60.8684 17.324 61.6145 16.5751 62.5229 16.5751H71.9952C72.9035 16.5751 73.6496 17.324 73.6496 18.2358C73.6496 19.1476 72.9035 19.8966 71.9952 19.8966Z" fill="#2E3038"/>
<path d="M81.8567 19.8966C80.9484 19.8966 80.2023 19.1477 80.2023 18.2359V5.76367C80.2023 4.85187 80.9484 4.10288 81.8567 4.10288C82.765 4.10288 83.5111 4.85187 83.5111 5.76367V11.1848L83.5658 11.1308C83.6307 11.0171 83.7099 10.9097 83.8031 10.8112C83.917 10.6968 84.0429 10.6025 84.1767 10.5282L90.1937 4.59137C90.8425 3.94009 91.8805 3.97265 92.5293 4.62394C93.1781 5.27523 93.1457 6.31729 92.4969 6.96858L87.3948 12.0201L92.4644 17.031C93.1132 17.6823 93.1132 18.7243 92.4969 19.3756C92.1725 19.7338 91.7508 19.8967 91.329 19.8967C90.9073 19.8967 90.4856 19.7338 90.1612 19.4082L85.0427 14.349L83.5111 15.8654V18.2359C83.5111 19.1477 82.765 19.8966 81.8567 19.8966Z" fill="#2E3038"/>
<path d="M72.1572 24H30.3104C27.2286 24 24.7308 21.4925 24.7308 18.3989V5.60109C24.6983 2.50746 27.2286 0 30.3104 0H72.1897C75.2714 0 77.7692 2.50746 77.7692 5.60109V18.3989C77.7692 21.4925 75.239 24 72.1572 24ZM30.3104 1.62822C28.1369 1.62822 26.3527 3.41927 26.3527 5.60109V18.3989C26.3527 20.5807 28.1369 22.3718 30.3104 22.3718H72.1897C74.3631 22.3718 76.1473 20.5807 76.1473 18.3989V5.60109C76.1473 3.41927 74.3631 1.62822 72.1897 1.62822H30.3104Z" fill="#6788F3"/>
<path d="M39.9125 16.6079H30.4401C30.3428 16.6079 30.2455 16.6079 30.1157 16.6404C29.3696 16.7707 28.7857 17.4545 28.7857 18.2686C28.7857 19.0828 29.3696 19.734 30.1157 19.8969C30.2131 19.9294 30.3104 19.9294 30.4401 19.9294H39.9125C40.8208 19.9294 41.5669 19.1805 41.5669 18.2686C41.5669 17.3243 40.8208 16.6079 39.9125 16.6079Z" fill="#6788F3"/>
<path d="M30.1482 7.35958C30.2455 7.39214 30.3428 7.39214 30.4726 7.39214H39.9125C40.8208 7.39214 41.5669 6.64316 41.5669 5.73136C41.5669 4.81955 40.8208 4.07057 39.9125 4.07057H30.4401C30.3428 4.07057 30.2455 4.07057 30.1157 4.10313C29.3696 4.23339 28.7857 4.91724 28.7857 5.73136C28.8182 6.54547 29.3696 7.22932 30.1482 7.35958Z" fill="#6788F3"/>
<path d="M30.1482 13.6119C30.2455 13.6445 30.3428 13.6445 30.4726 13.6445H37.6417C38.55 13.6445 39.2961 12.8955 39.2961 11.9837C39.2961 11.0719 38.55 10.3229 37.6417 10.3229H30.4401C30.3428 10.3229 30.2455 10.3229 30.1157 10.3555C29.3696 10.4857 28.7857 11.1696 28.7857 11.9837C28.8182 12.7978 29.3696 13.4817 30.1482 13.6119Z" fill="#6788F3"/>
</g>
<defs>
<clipPath id="clip0_3526_1295">
<rect width="93" height="24" fill="white"/>
</clipPath>
</defs>
</svg>
