<svg data-v-edb23ac6="" viewBox="0 0 24 24" fill="none" xmlns="http://www.w3.org/2000/svg" class="k" style="height: 20px; width: 20px; fill: rgb(202, 202, 210); --da038728: inherit;"><path opacity="0.39" d="M14.8 13.4L18.7 17.3C19.1 17.7 19.1 18.3 18.7 18.7C18.3 19.1 17.7 19.1 17.3 18.7L13.4 14.8C13 14.4 13 13.8 13.4 13.4C13.8 13 14.4 13 14.8 13.4Z" fill="#808080"></path><path d="M6.70002 18.7C6.30002 19.1 5.7 19.1 5.3 18.7C4.9 18.3 4.9 17.7 5.3 17.3L10.6 12L5.3 6.70002C4.9 6.30002 4.9 5.7 5.3 5.3C5.7 4.9 6.30002 4.9 6.70002 5.3L12 10.6L17.3 5.3C17.7 4.9 18.3 4.9 18.7 5.3C19.1 5.7 19.1 6.30002 18.7 6.70002L6.70002 18.7Z" fill="#808080"></path></svg>